<svg xmlns="http://www.w3.org/2000/svg" version="1.1" xmlns:xlink="http://www.w3.org/1999/xlink" xmlns:svgjs="http://svgjs.com/svgjs" width="1440" height="2200" preserveAspectRatio="none" viewBox="0 0 1440 2200"><g mask="url(&quot;#SvgjsMask1265&quot;)" fill="none"><path d="M69.456,733.036C141.248,729.86,213.031,706.408,250.291,644.96C288.838,581.39,286.16,501.286,249.04,436.872C211.867,372.366,143.794,335.235,69.456,331.158C-13.638,326.601,-103.126,344.913,-147.824,415.109C-195.271,489.623,-191.235,589.354,-141.391,662.287C-96.559,727.887,-9.922,736.547,69.456,733.036" fill="rgba(104, 125, 146, 0.4)" class="triangle-float1"></path><path d="M1219.753,766.48C1295.193,766.505,1351.172,707.982,1392.272,644.721C1438.889,572.967,1489.291,488.204,1449.891,412.247C1408.605,332.654,1309.144,305.134,1219.753,312.13C1141.658,318.242,1080.604,374.42,1044.558,443.968C1011.57,507.615,1013.215,581.611,1047.434,644.605C1083.428,710.865,1144.348,766.455,1219.753,766.48" fill="rgba(104, 125, 146, 0.4)" class="triangle-float1"></path><path d="M87.587,1089.018C179.292,1089.993,251.655,1016.669,292.684,934.648C329.376,861.297,318.131,777.784,279.45,705.462C237.966,627.9,175.357,556.939,87.587,551.178C-9.367,544.814,-108.579,590.887,-153.496,677.045C-195.944,758.467,-156.473,851.117,-110.097,930.367C-64.36,1008.525,-2.965,1088.056,87.587,1089.018" fill="rgba(104, 125, 146, 0.4)" class="triangle-float3"></path><path d="M1165.984,1499.067C1212.91,1497.642,1244.571,1456.548,1267.436,1415.544C1289.531,1375.922,1305.113,1329.025,1282.846,1289.5C1260.269,1249.423,1211.945,1233.588,1165.984,1235.458C1123.36,1237.192,1086.564,1261.869,1064.507,1298.383C1041.569,1336.355,1033.252,1382.457,1053.27,1422.046C1075.278,1465.57,1117.234,1500.547,1165.984,1499.067" fill="rgba(104, 125, 146, 0.4)" class="triangle-float2"></path><path d="M1118.166,2493.512C1225.648,2488.479,1297.466,2393.357,1347.209,2297.945C1392.436,2211.195,1408.131,2111.171,1362.662,2024.547C1313.874,1931.602,1223.105,1858.956,1118.166,1861.597C1016.679,1864.151,945.432,1948.757,894.091,2036.337C841.957,2125.271,803.317,2228.723,848.687,2321.29C898.972,2423.886,1004.034,2498.857,1118.166,2493.512" fill="rgba(104, 125, 146, 0.4)" class="triangle-float1"></path><path d="M1138.84,94.853C1176.616,95.496,1214.808,84.151,1235.861,52.779C1259.455,17.62,1267.488,-28.619,1246.298,-65.277C1225.123,-101.908,1181.147,-115.663,1138.84,-115.062C1097.722,-114.478,1056.515,-98.243,1036.545,-62.296C1017.046,-27.197,1025.475,15.917,1047.38,49.568C1067.271,80.125,1102.384,94.232,1138.84,94.853" fill="rgba(104, 125, 146, 0.4)" class="triangle-float1"></path></g><defs><mask id="SvgjsMask1265"><rect width="1440" height="2200" fill="#ffffff"></rect></mask><style>
            @keyframes float1 {
                0%{transform: translate(0, 0)}
                50%{transform: translate(-10px, 0)}
                100%{transform: translate(0, 0)}
            }

            .triangle-float1 {
                animation: float1 5s infinite;
            }

            @keyframes float2 {
                0%{transform: translate(0, 0)}
                50%{transform: translate(-5px, -5px)}
                100%{transform: translate(0, 0)}
            }

            .triangle-float2 {
                animation: float2 4s infinite;
            }

            @keyframes float3 {
                0%{transform: translate(0, 0)}
                50%{transform: translate(0, -10px)}
                100%{transform: translate(0, 0)}
            }

            .triangle-float3 {
                animation: float3 6s infinite;
            }
        </style></defs></svg>